<svg width="352" height="75" viewBox="0 0 352 75" fill="none" xmlns="http://www.w3.org/2000/svg">
<g clip-path="url(#clip0_13_195)">
<path d="M290.429 74.4822C290.017 74.4822 289.632 74.3723 289.275 74.1798L285.619 72.0079C285.069 71.7053 285.344 71.5954 285.509 71.5404C286.251 71.293 286.389 71.2378 287.158 70.7982C287.241 70.743 287.351 70.7706 287.433 70.8256L290.237 72.5027C290.347 72.5576 290.484 72.5576 290.567 72.5027L301.534 66.1515C301.644 66.0965 301.699 65.9864 301.699 65.8491V53.1743C301.699 53.0366 301.644 52.9269 301.534 52.8717L290.567 46.5481C290.457 46.4929 290.319 46.4929 290.237 46.5481L279.269 52.8717C279.16 52.9267 279.104 53.0642 279.104 53.1741V65.8489C279.104 65.959 279.16 66.0963 279.269 66.1515L282.266 67.8836C283.887 68.7083 284.904 67.7461 284.904 66.7838V54.2738C284.904 54.109 285.042 53.9439 285.234 53.9439H286.636C286.801 53.9439 286.966 54.0814 286.966 54.2738V66.7838C286.966 68.9557 285.784 70.2206 283.722 70.2206C283.09 70.2206 282.596 70.2206 281.194 69.5331L278.307 67.8836C277.593 67.4713 277.153 66.7012 277.153 65.8765V53.2017C277.153 52.3769 277.593 51.6068 278.307 51.1946L289.275 44.8434C289.962 44.4585 290.897 44.4585 291.584 44.8434L302.551 51.1946C303.266 51.6068 303.706 52.3769 303.706 53.2017V65.8765C303.706 66.7012 303.266 67.4713 302.551 67.8836L291.584 74.2348C291.226 74.3999 290.814 74.4822 290.429 74.4822H290.429ZM293.81 65.7666C289 65.7666 288.01 63.567 288.01 61.6974C288.01 61.5324 288.148 61.3675 288.34 61.3675H289.77C289.934 61.3675 290.072 61.4774 290.072 61.6425C290.292 63.0996 290.924 63.8144 293.838 63.8144C296.146 63.8144 297.136 63.292 297.136 62.0548C297.136 61.3399 296.861 60.8177 293.26 60.4602C290.264 60.1576 288.395 59.4979 288.395 57.1059C288.395 54.8788 290.264 53.559 293.398 53.559C296.916 53.559 298.648 54.7689 298.868 57.408C298.868 57.4908 298.84 57.5731 298.785 57.6557C298.73 57.7106 298.648 57.7656 298.565 57.7656H297.136C296.999 57.7656 296.861 57.6557 296.834 57.5182C296.504 56.0062 295.652 55.5111 293.398 55.5111C290.869 55.5111 290.567 56.3911 290.567 57.0507C290.567 57.8481 290.924 58.0955 294.332 58.5354C297.713 58.9755 299.308 59.6078 299.308 61.9722C299.28 64.3918 297.301 65.7666 293.81 65.7666Z" fill="#539E43"/>
<path d="M256.4 24.9099C256.4 24.4151 256.125 23.9474 255.686 23.7L244.031 16.9915C243.839 16.8814 243.619 16.8264 243.399 16.7988H243.289C243.069 16.7988 242.849 16.8814 242.657 16.9915L231.002 23.7C230.562 23.9474 230.288 24.4149 230.288 24.9099L230.315 42.9461C230.315 43.1935 230.453 43.4409 230.672 43.5511C230.892 43.6886 231.167 43.6886 231.36 43.5511L238.286 39.5919C238.726 39.3444 239.001 38.877 239.001 38.3822V29.9413C239.001 29.4465 239.276 28.9791 239.716 28.7317L242.657 27.0269C242.877 26.8894 243.124 26.8342 243.371 26.8342C243.619 26.8342 243.866 26.8894 244.059 27.0269L247 28.7317C247.44 28.9791 247.714 29.4463 247.714 29.9413V38.3822C247.714 38.877 247.989 39.3444 248.429 39.5919L255.356 43.5511C255.576 43.6886 255.85 43.6886 256.07 43.5511C256.29 43.4409 256.428 43.1935 256.428 42.9461L256.4 24.9099Z" fill="#333333"/>
<path d="M312.419 0.0826076C312.199 -0.0275359 311.924 -0.0275359 311.732 0.0826076C311.512 0.220108 311.374 0.43992 311.374 0.687326V18.5589C311.374 18.7237 311.292 18.8886 311.127 18.9987C310.962 19.081 310.797 19.081 310.632 18.9987L307.719 17.3216C307.505 17.1999 307.263 17.136 307.018 17.136C306.772 17.136 306.53 17.1999 306.317 17.3216L294.662 24.0577C294.222 24.3051 293.948 24.7726 293.948 25.2674V38.712C293.948 39.2068 294.222 39.6745 294.662 39.9219L306.317 46.658C306.53 46.7797 306.772 46.8437 307.018 46.8437C307.263 46.8437 307.505 46.7797 307.719 46.658L319.373 39.9219C319.813 39.6745 320.088 39.2071 320.088 38.712V5.19655C320.088 4.67414 319.813 4.20692 319.373 3.95928L312.419 0.0826076H312.419ZM311.347 34.2856C311.347 34.4231 311.292 34.533 311.182 34.5879L307.196 36.8974C307.141 36.9246 307.08 36.9387 307.018 36.9387C306.956 36.9387 306.895 36.9246 306.839 36.8974L302.853 34.5879C302.743 34.533 302.688 34.3955 302.688 34.2856V29.6665C302.688 29.529 302.743 29.4191 302.853 29.3641L306.839 27.0544C306.895 27.0273 306.956 27.0131 307.018 27.0131C307.08 27.0131 307.141 27.0273 307.196 27.0544L311.182 29.3641C311.292 29.4188 311.347 29.5566 311.347 29.6665V34.2856Z" fill="#333333"/>
<path d="M351.203 29.5566C351.643 29.3092 351.89 28.8417 351.89 28.3467V25.0749C351.89 24.5801 351.615 24.1127 351.203 23.8653L339.631 17.1568C339.417 17.0351 339.176 16.9712 338.93 16.9712C338.684 16.9712 338.443 17.0351 338.229 17.1568L326.575 23.8926C326.135 24.14 325.86 24.6075 325.86 25.1025V38.5472C325.86 39.042 326.135 39.5094 326.575 39.7568L338.147 46.3555C338.587 46.6029 339.109 46.6029 339.521 46.3555L346.53 42.4517C346.75 42.3415 346.888 42.0941 346.888 41.8467C346.888 41.5993 346.75 41.3519 346.53 41.2418L334.821 34.5056C334.601 34.3684 334.463 34.1483 334.463 33.9009V29.6943C334.463 29.4469 334.601 29.1995 334.821 29.0893L338.477 26.9997C338.584 26.9324 338.707 26.8966 338.834 26.8966C338.96 26.8966 339.084 26.9324 339.191 26.9997L342.847 29.0893C343.067 29.2268 343.204 29.4467 343.204 29.6943V32.9936C343.204 33.241 343.342 33.4884 343.562 33.5983C343.782 33.7358 344.056 33.7358 344.276 33.5983L351.203 29.5566Z" fill="#333333"/>
<path d="M338.752 28.9242C338.792 28.8974 338.84 28.8831 338.889 28.8831C338.938 28.8831 338.986 28.8974 339.026 28.9242L341.253 30.2165C341.335 30.2712 341.39 30.3537 341.39 30.4639V33.0483C341.39 33.1582 341.335 33.2408 341.253 33.2957L339.026 34.5879C338.986 34.6148 338.938 34.6291 338.889 34.6291C338.84 34.6291 338.792 34.6148 338.752 34.5879L336.525 33.2957C336.443 33.2408 336.388 33.1582 336.388 33.0483V30.4639C336.388 30.3537 336.443 30.2712 336.525 30.2165L338.752 28.9242Z" fill="#539E43"/>
<mask id="mask0_13_195" style="mask-type:alpha" maskUnits="userSpaceOnUse" x="262" y="17" width="27" height="30">
<path d="M275.889 17.2117C275.675 17.0901 275.433 17.0261 275.188 17.0261C274.942 17.0261 274.7 17.0901 274.487 17.2117L262.915 23.8924C262.475 24.1398 262.228 24.6072 262.228 25.102V38.492C262.228 38.9868 262.502 39.4542 262.915 39.7016L274.487 46.3828C274.7 46.5044 274.942 46.5684 275.188 46.5684C275.433 46.5684 275.675 46.5044 275.889 46.3828L287.461 39.7016C287.9 39.4542 288.148 38.9868 288.148 38.492V25.1023C288.148 24.6075 287.873 24.14 287.461 23.8926L275.889 17.2117Z" fill="white"/>
</mask>
<g mask="url(#mask0_13_195)">
<path d="M275.889 17.2117C275.675 17.0901 275.433 17.0261 275.188 17.0261C274.942 17.0261 274.7 17.0901 274.487 17.2117L262.915 23.8924C262.475 24.1398 262.228 24.6072 262.228 25.102V38.492C262.228 38.9868 262.502 39.4542 262.915 39.7016L274.487 46.3828C274.7 46.5044 274.942 46.5684 275.188 46.5684C275.433 46.5684 275.675 46.5044 275.889 46.3828L287.461 39.7016C287.9 39.4542 288.148 38.9868 288.148 38.492V25.1023C288.148 24.6075 287.873 24.14 287.461 23.8926L275.889 17.2117Z" fill="url(#paint0_linear_13_195)"/>
<path d="M287.488 23.8926L275.861 17.2117C275.747 17.154 275.627 17.1079 275.504 17.0742L262.475 39.3998C262.583 39.5316 262.713 39.6433 262.86 39.7297L274.487 46.4109C274.817 46.6033 275.201 46.6583 275.559 46.5481L287.791 24.1679C287.708 24.058 287.598 23.9752 287.488 23.8929V23.8926Z" fill="url(#paint1_linear_13_195)"/>
<path fill-rule="evenodd" clip-rule="evenodd" d="M287.516 39.7018C287.845 39.5093 288.093 39.1794 288.203 38.8221L275.449 17.0465C275.119 16.9916 274.761 17.0189 274.459 17.2114L262.915 23.8652L275.366 46.5754C275.547 46.5458 275.723 46.4902 275.888 46.4106L287.515 39.702L287.516 39.7018Z" fill="url(#paint2_linear_13_195)"/>
<path fill-rule="evenodd" clip-rule="evenodd" d="M287.516 39.7017L275.916 46.3829C275.752 46.4664 275.576 46.5222 275.394 46.5478L275.614 46.9603L288.478 39.5095V39.3444L288.148 38.7944C288.093 39.1793 287.845 39.5093 287.516 39.7017Z" fill="url(#paint3_linear_13_195)"/>
<path fill-rule="evenodd" clip-rule="evenodd" d="M287.516 39.7017L275.916 46.3829C275.752 46.4664 275.576 46.5222 275.394 46.5478L275.614 46.9603L288.478 39.5095V39.3444L288.148 38.7944C288.093 39.1793 287.845 39.5093 287.516 39.7017Z" fill="url(#paint4_linear_13_195)"/>
</g>
</g>
<g clip-path="url(#clip1_13_195)">
<path d="M1.44504 55.1433V30.4904H32.2991V29.0483H1.44504V6.55781H34.2498V5.11621H0V56.5849H34.5386V55.1433H1.44547H1.44504ZM62.3582 19.533L49.5688 36.329L37.0679 19.5335H35.1892L48.7015 37.4106L33.8881 56.5845H35.6224L49.568 38.491L63.586 56.5845H65.3923L50.5073 37.4098L64.0916 19.5326H62.3578L62.3582 19.533ZM69.7282 69.272V46.2052H69.8727C70.74 49.569 72.45 52.2722 75.0032 54.3148C77.5563 56.3569 80.8076 57.3784 84.7576 57.3784C87.3107 57.3784 89.575 56.8618 91.5499 55.8286C93.5249 54.7954 95.1747 53.3898 96.4996 51.6116C97.8241 49.8334 98.8359 47.767 99.5345 45.4121C100.233 43.0576 100.582 40.5824 100.582 37.9878C100.582 35.2002 100.221 32.629 99.4981 30.2745C98.7756 27.9196 97.7278 25.877 96.3552 24.1473C94.9821 22.4171 93.3203 21.0711 91.3691 20.1106C89.4184 19.1493 87.2144 18.6686 84.7576 18.6686C82.8789 18.6686 81.1328 18.9451 79.5191 19.4976C77.9054 20.0505 76.4725 20.831 75.22 21.8404C73.9602 22.8575 72.8636 24.0608 71.9682 25.4084C71.0531 26.7782 70.3545 28.28 69.8727 29.9141H69.7282V19.533H68.2832V69.272H69.7282ZM84.7576 56.0082C80.2299 56.0082 76.5926 54.4584 73.8469 51.3589C71.1013 48.2594 69.7282 43.8018 69.7282 37.9869C69.7282 35.584 70.0657 33.3013 70.74 31.1389C71.4144 28.9765 72.3898 27.078 73.6661 25.4444C74.9429 23.8102 76.5206 22.5127 78.3989 21.5518C80.2776 20.5904 82.3975 20.1098 84.7576 20.1098C87.1663 20.1098 89.274 20.5904 91.0803 21.5518C92.8866 22.5127 94.3802 23.8223 95.5602 25.4803C96.7403 27.1382 97.6315 29.0367 98.2339 31.1748C98.8358 33.3134 99.1368 35.584 99.1368 37.9869C99.1368 40.1498 98.8601 42.3005 98.3059 44.4386C97.7521 46.5772 96.8969 48.4995 95.7406 50.2059C94.5849 51.9114 93.1038 53.305 91.2971 54.3866C89.4904 55.4678 87.3107 56.0082 84.7576 56.0082ZM108.53 56.5849V35.6082C108.53 33.5899 108.819 31.6192 109.398 29.6973C109.975 27.775 110.867 26.0808 112.071 24.6154C113.275 23.1496 114.805 21.9961 116.659 21.155C118.514 20.314 120.718 19.9657 123.271 20.1098V18.6682C121.055 18.6206 119.116 18.8603 117.454 19.389C115.792 19.9177 114.359 20.6385 113.155 21.5518C111.95 22.4647 110.987 23.5338 110.265 24.7595C109.543 25.9832 109.007 27.3072 108.675 28.6879H108.53V19.533H107.085V56.5853H108.53V56.5849ZM125.077 38.3473H156.148C156.244 35.8003 155.992 33.3498 155.389 30.9948C154.787 28.6399 153.824 26.5493 152.499 24.7236C151.174 22.8973 149.464 21.4315 147.369 20.3261C145.273 19.2207 142.78 18.6682 139.89 18.6682C137.818 18.6682 135.795 19.1008 133.82 19.9661C131.845 20.831 130.111 22.0922 128.618 23.7501C127.125 25.408 125.92 27.4384 125.005 29.8418C124.09 32.2443 123.632 34.9835 123.632 38.0592C123.632 40.7983 123.945 43.3574 124.572 45.7362C125.198 48.1149 126.161 50.1816 127.462 51.9356C128.763 53.6896 130.437 55.0473 132.484 56.0082C134.531 56.9695 137 57.426 139.89 57.3779C144.129 57.3779 147.694 56.1882 150.584 53.8099C153.474 51.4307 155.184 48.079 155.714 43.7537H154.269C153.643 47.8388 152.041 50.9024 149.464 52.9446C146.887 54.9871 143.648 56.0082 139.745 56.0082C137.096 56.0082 134.856 55.5517 133.025 54.6388C131.195 53.7259 129.702 52.476 128.545 50.8903C127.39 49.3042 126.534 47.4421 125.981 45.3035C125.426 43.1653 125.125 40.8463 125.077 38.3473ZM154.703 36.9057H125.078C125.222 34.3107 125.703 31.98 126.522 29.9136C127.342 27.8469 128.413 26.0808 129.738 24.6154C131.063 23.1496 132.604 22.0325 134.362 21.2632C136.121 20.4944 138.011 20.1098 140.035 20.1098C142.443 20.1098 144.562 20.5545 146.393 21.4436C148.223 22.3327 149.753 23.5463 150.982 25.084C152.21 26.6216 153.137 28.4119 153.763 30.454C154.39 32.4966 154.703 34.6473 154.703 36.9057ZM186.135 30.4904H187.58C187.58 26.3572 186.376 23.3538 183.967 21.4795C181.558 19.6053 178.283 18.6682 174.14 18.6682C171.828 18.6682 169.877 18.9567 168.287 19.5335C166.698 20.1098 165.397 20.8548 164.385 21.7677C163.374 22.6806 162.651 23.69 162.218 24.7954C161.784 25.9008 161.567 26.9582 161.567 27.9671C161.567 29.9855 161.928 31.5954 162.651 32.7968C163.374 33.9983 164.506 34.9354 166.047 35.6082C167.107 36.0885 168.311 36.5211 169.66 36.9062C171.009 37.2904 172.574 37.6988 174.357 38.131C175.946 38.5161 177.512 38.9003 179.054 39.2845C180.595 39.6691 181.956 40.1857 183.136 40.8342C184.316 41.4832 185.28 42.3121 186.026 43.3215C186.773 44.3305 187.146 45.6522 187.146 47.2859C187.146 48.872 186.773 50.2176 186.026 51.3226C185.286 52.4222 184.311 53.3454 183.172 54.0262C182.016 54.7228 180.727 55.2272 179.306 55.5396C177.885 55.852 176.501 56.0082 175.152 56.0082C170.768 56.0082 167.408 55.0351 165.072 53.0891C162.735 51.1426 161.567 48.079 161.567 43.8978H160.122C160.122 48.5596 161.387 51.9715 163.915 54.1344C166.445 56.2967 170.19 57.3779 175.152 57.3779C176.741 57.3779 178.343 57.1975 179.957 56.8371C181.57 56.4767 183.016 55.8883 184.292 55.071C185.558 54.2654 186.621 53.1803 187.399 51.8997C188.194 50.6018 188.592 49.0161 188.592 47.1418C188.592 45.3636 188.242 43.922 187.544 42.8166C186.845 41.7116 185.93 40.7983 184.798 40.0775C183.666 39.3567 182.39 38.7921 180.968 38.3837C179.539 37.9728 178.106 37.5762 176.669 37.1939C174.9 36.731 173.13 36.2745 171.358 35.8245C169.841 35.4399 168.432 34.9835 167.131 34.4548C165.879 33.9261 164.879 33.1694 164.132 32.1842C163.385 31.1991 163.012 29.7934 163.012 27.9671C163.012 27.631 163.109 27.03 163.301 26.1652C163.494 25.2998 163.952 24.4229 164.674 23.5338C165.397 22.6451 166.505 21.852 167.998 21.155C169.491 20.4585 171.539 20.1098 174.14 20.1098C175.922 20.1098 177.548 20.3023 179.017 20.6865C180.487 21.0711 181.751 21.6837 182.811 22.5248C183.871 23.3659 184.689 24.435 185.267 25.7325C185.846 27.0305 186.135 28.6161 186.135 30.4904ZM219.59 30.4904H221.035C221.035 26.3572 219.831 23.3538 217.422 21.4795C215.013 19.6053 211.738 18.6682 207.595 18.6682C205.283 18.6682 203.332 18.9567 201.742 19.5335C200.152 20.1098 198.852 20.8548 197.84 21.7677C196.829 22.6806 196.106 23.69 195.672 24.7954C195.239 25.9008 195.022 26.9582 195.022 27.9671C195.022 29.9855 195.384 31.5954 196.107 32.7968C196.829 33.9983 197.961 34.9354 199.502 35.6082C200.562 36.0885 201.766 36.5211 203.115 36.9062C204.464 37.2904 206.029 37.6988 207.812 38.131C209.402 38.5161 210.967 38.9003 212.508 39.2845C214.05 39.6691 215.411 40.1857 216.591 40.8342C217.771 41.4832 218.735 42.3121 219.481 43.3215C220.228 44.3305 220.601 45.6522 220.601 47.2859C220.601 48.872 220.228 50.2176 219.481 51.3226C218.741 52.4222 217.767 53.3453 216.628 54.0262C215.471 54.7228 214.183 55.2272 212.761 55.5396C211.341 55.852 209.955 56.0082 208.607 56.0082C204.223 56.0082 200.863 55.0351 198.527 53.0891C196.19 51.1426 195.022 48.079 195.022 43.8978H193.577C193.577 48.5596 194.841 51.9715 197.371 54.1344C199.9 56.2967 203.645 57.3779 208.607 57.3779C210.197 57.3779 211.798 57.1975 213.412 56.8371C215.025 56.4767 216.471 55.8883 217.747 55.071C219.013 54.2654 220.076 53.1803 220.854 51.8997C221.649 50.6018 222.047 49.0161 222.047 47.1418C222.047 45.3636 221.697 43.922 220.999 42.8166C220.301 41.7116 219.385 40.7983 218.253 40.0775C217.121 39.3567 215.844 38.7921 214.424 38.3837C212.994 37.9728 211.561 37.5762 210.124 37.1939C208.355 36.731 206.585 36.2745 204.813 35.8245C203.296 35.4399 201.887 34.9835 200.586 34.4548C199.334 33.9261 198.334 33.1694 197.588 32.1842C196.841 31.1991 196.467 29.7934 196.467 27.9671C196.467 27.631 196.564 27.03 196.757 26.1652C196.949 25.2998 197.407 24.4229 198.129 23.5338C198.852 22.6451 199.96 21.852 201.453 21.155C202.947 20.4585 204.994 20.1098 207.595 20.1098C209.378 20.1098 211.003 20.3023 212.472 20.6865C213.942 21.0711 215.206 21.6837 216.266 22.5248C217.326 23.3659 218.145 24.435 218.723 25.7325C219.301 27.0305 219.59 28.6161 219.59 30.4904H219.59Z" fill="white"/>
</g>
<defs>
<linearGradient id="paint0_linear_13_195" x1="279.902" y1="22.1922" x2="267.213" y2="42.1247" gradientUnits="userSpaceOnUse">
<stop stop-color="#41873F"/>
<stop offset="0.3288" stop-color="#418B3D"/>
<stop offset="0.6352" stop-color="#419637"/>
<stop offset="0.9319" stop-color="#3FA92D"/>
<stop offset="1" stop-color="#3FAE2A"/>
</linearGradient>
<linearGradient id="paint1_linear_13_195" x1="273.431" y1="33.3657" x2="305.201" y2="16.1094" gradientUnits="userSpaceOnUse">
<stop offset="0.1376" stop-color="#41873F"/>
<stop offset="0.4032" stop-color="#54A044"/>
<stop offset="0.7136" stop-color="#66B848"/>
<stop offset="0.9081" stop-color="#6CC04A"/>
</linearGradient>
<linearGradient id="paint2_linear_13_195" x1="261.805" y1="31.7976" x2="288.582" y2="31.7976" gradientUnits="userSpaceOnUse">
<stop offset="0.09192" stop-color="#6CC04A"/>
<stop offset="0.2864" stop-color="#66B848"/>
<stop offset="0.5968" stop-color="#54A044"/>
<stop offset="0.8624" stop-color="#41873F"/>
</linearGradient>
<linearGradient id="paint3_linear_13_195" x1="261.805" y1="42.8998" x2="288.582" y2="42.8998" gradientUnits="userSpaceOnUse">
<stop offset="0.09192" stop-color="#6CC04A"/>
<stop offset="0.2864" stop-color="#66B848"/>
<stop offset="0.5968" stop-color="#54A044"/>
<stop offset="0.8624" stop-color="#41873F"/>
</linearGradient>
<linearGradient id="paint4_linear_13_195" x1="292.483" y1="21.5589" x2="285.696" y2="57.114" gradientUnits="userSpaceOnUse">
<stop stop-color="#41873F"/>
<stop offset="0.3288" stop-color="#418B3D"/>
<stop offset="0.6352" stop-color="#419637"/>
<stop offset="0.9319" stop-color="#3FA92D"/>
<stop offset="1" stop-color="#3FAE2A"/>
</linearGradient>
<clipPath id="clip0_13_195">
<rect width="121.767" height="74.6977" fill="white" transform="translate(230.233)"/>
</clipPath>
<clipPath id="clip1_13_195">
<rect width="222.047" height="64.4651" fill="white" transform="translate(0 5.11621)"/>
</clipPath>
</defs>
</svg>
