<svg width="364" height="74" viewBox="0 0 364 74" fill="none" xmlns="http://www.w3.org/2000/svg">
<g clip-path="url(#clip0_13_198)">
<path fill-rule="evenodd" clip-rule="evenodd" d="M242.081 30.6455C241.847 30.6922 241.613 31.2066 241.613 31.4869C241.566 33.3582 241.519 38.3162 241.519 41.6837C241.519 41.7775 241.659 41.9645 241.8 41.9645C242.503 42.0111 244.19 42.0577 245.643 42.0577C247.658 42.0577 248.829 41.7775 249.486 41.4972C251.172 40.6548 251.969 38.8306 251.969 36.8189C251.969 32.2826 248.782 30.5518 244.049 30.5518C243.721 30.5051 242.785 30.5051 242.081 30.6455ZM254.172 51.5531C254.172 46.9225 250.751 44.3497 244.565 44.3497C244.284 44.3497 242.315 44.3031 241.847 44.3963C241.706 44.4435 241.519 44.5372 241.519 44.6776C241.519 47.998 241.472 53.2839 241.613 55.3418C241.706 56.2303 242.363 57.4933 243.159 57.8674C244.002 58.3352 245.924 58.4285 247.236 58.4285C250.938 58.4285 254.172 56.3707 254.172 51.5531ZM232.522 28.0733C232.99 28.0733 234.395 28.2132 238.004 28.2132C241.425 28.2132 244.143 28.1199 247.47 28.1199C251.547 28.1199 257.17 29.5695 257.17 35.6502C257.17 38.6436 255.061 41.0293 252.297 42.1986C252.157 42.2453 252.157 42.3385 252.297 42.3852C256.233 43.3679 259.701 45.7998 259.701 50.3832C259.701 54.8739 256.89 57.727 252.812 59.5045C250.329 60.58 247.236 60.9541 244.096 60.9541C241.706 60.9541 235.286 60.6738 231.725 60.7676C231.35 60.6267 232.053 58.9429 232.38 58.6626C233.224 58.6155 233.88 58.5689 234.771 58.2881C236.036 57.9612 236.176 57.5866 236.364 55.6692C236.458 54.0321 236.458 48.2317 236.458 44.1161C236.458 38.4566 236.505 34.6212 236.458 32.7505C236.411 31.3009 235.896 30.8325 234.865 30.5518C234.067 30.4119 232.756 30.2243 231.678 30.0844C231.443 29.8503 232.24 28.2598 232.522 28.0733ZM205.482 57.1659C206.607 58.0539 208.809 58.428 210.778 58.428C213.308 58.428 215.838 57.9612 218.275 55.7619C220.759 53.5176 222.493 50.0563 222.493 44.5372C222.493 39.2513 220.478 34.9482 216.354 32.423C214.011 30.9724 211.012 30.3652 207.544 30.3652C206.513 30.3652 205.529 30.4119 204.92 30.6922C204.779 30.7859 204.451 31.2066 204.451 31.4403C204.357 32.3759 204.357 39.5787 204.357 43.7886C204.357 48.1384 204.357 54.2191 204.451 54.9206C204.451 55.6226 204.779 56.6981 205.482 57.1659H205.482ZM194.844 28.0728C195.735 28.0728 199.155 28.2132 200.796 28.2132C203.748 28.2132 205.857 28.0733 211.433 28.0733C216.119 28.0733 220.056 29.3358 222.868 31.7211C226.288 34.6679 228.07 38.7374 228.07 43.6949C228.07 50.7578 224.836 54.8273 221.602 57.1659C218.369 59.5511 214.152 60.9541 208.153 60.9541C204.967 60.9541 199.484 60.8608 194.938 60.8137H194.891C194.657 60.393 195.266 58.7559 195.641 58.7093C196.86 58.5689 197.188 58.5217 197.797 58.2886C198.781 57.914 198.968 57.3996 199.109 55.6692C199.249 52.4416 199.203 48.5596 199.203 44.1627C199.203 41.0293 199.249 34.9015 199.155 32.937C199.015 31.3004 198.312 30.8792 196.906 30.5984C196.203 30.4585 195.266 30.271 193.954 30.1311C193.766 29.8031 194.61 28.3535 194.844 28.0733V28.0728Z" fill="#8E714E"/>
<path fill-rule="evenodd" clip-rule="evenodd" d="M138.142 58.9895C136.97 58.8491 136.127 58.6626 135.096 58.1947C134.955 58.101 134.721 57.6336 134.721 57.4461C134.627 55.809 134.627 51.1318 134.627 47.9984C134.627 45.4723 134.206 43.2741 133.128 41.7307C131.862 39.9527 130.035 38.9243 127.692 38.9243C125.63 38.9243 122.865 40.3273 120.568 42.2918C120.522 42.3385 120.147 42.6664 120.194 42.1514C120.194 41.637 120.288 40.6081 120.334 39.9061C120.382 39.2512 120.006 38.9243 120.006 38.9243C118.507 39.6724 114.289 40.6547 112.743 40.7946C111.618 41.0293 111.337 42.1048 112.509 42.4789H112.556C113.82 42.8529 114.664 43.2741 115.32 43.6953C115.788 44.0693 115.742 44.5838 115.742 45.005C115.788 48.5124 115.788 53.8916 115.648 56.8384C115.602 58.0077 115.273 58.4284 114.429 58.6154L114.523 58.5688C113.867 58.7092 113.352 58.8491 112.555 58.9428C112.274 59.2236 112.274 60.7204 112.555 61.0478C113.071 61.0478 115.788 60.9074 118.039 60.9074C121.131 60.9074 122.725 61.0478 123.521 61.0478C123.849 60.6737 123.943 59.2703 123.755 58.9428C122.865 58.8962 122.209 58.803 121.6 58.6154C120.756 58.4279 120.522 58.0077 120.474 57.0254C120.382 54.5459 120.382 49.3076 120.382 45.7531C120.382 44.7708 120.662 44.303 120.943 44.0222C122.021 43.0871 123.755 42.4322 125.302 42.4322C126.801 42.4322 127.785 42.9 128.535 43.5083C129.566 44.3496 129.894 45.5661 130.035 46.4546C130.269 48.4658 130.175 52.4415 130.175 55.9028C130.175 57.7735 130.035 58.2414 129.332 58.475C129.004 58.6154 128.16 58.8029 127.176 58.8957C126.848 59.2236 126.942 60.6737 127.176 61.0012C128.535 61.0012 130.129 60.8608 132.472 60.8608C135.377 60.8608 137.252 61.0012 138.002 61.0012C138.235 60.7204 138.329 59.364 138.142 58.9895ZM151.122 41.123C148.639 41.123 147.092 43.0404 147.092 46.0334C147.092 49.074 148.451 52.5819 152.294 52.5819C152.95 52.5819 154.169 52.3011 154.731 51.6462C155.621 50.8049 156.231 49.1206 156.231 47.3431C156.231 43.4611 154.309 41.1225 151.122 41.1225V41.123ZM150.794 61.7959C149.858 61.7959 149.201 62.0767 148.779 62.3109C146.811 63.5729 145.921 64.7893 145.921 66.24C145.921 67.5958 146.436 68.6713 147.561 69.6069C148.92 70.7762 150.794 71.3378 153.184 71.3378C157.964 71.3378 160.073 68.7651 160.073 66.24C160.073 64.4619 159.182 63.2926 157.355 62.6383C156.043 62.0767 153.653 61.7959 150.794 61.7959ZM151.122 73.9572C148.264 73.9572 146.202 73.349 144.421 71.9927C142.687 70.683 141.938 68.7184 141.938 67.3621C141.938 66.9881 142.032 65.9586 142.875 65.0235C143.39 64.4619 144.515 63.3864 147.186 61.5622C147.28 61.5156 147.327 61.469 147.327 61.3747C147.327 61.2814 147.233 61.1877 147.139 61.1416C144.937 60.2997 144.281 58.9428 144.093 58.1947V58.101C144.047 57.8202 143.953 57.5399 144.375 57.2591C144.703 57.0254 145.171 56.7446 145.686 56.4177C146.483 55.9494 147.327 55.4349 147.842 55.0137C147.936 54.9205 147.936 54.8272 147.936 54.7335C147.936 54.6397 147.842 54.5459 147.748 54.4998C144.469 53.4238 142.828 50.9914 142.828 47.3431C142.828 44.9579 143.906 42.8063 145.827 41.4499C147.139 40.421 150.42 39.158 152.575 39.158H152.716C154.918 39.2046 156.137 39.6724 157.87 40.2806C158.808 40.6081 159.698 40.748 160.917 40.748C162.744 40.748 163.541 40.1869 164.197 39.5325C164.244 39.6258 164.338 39.86 164.385 40.4677C164.431 41.0759 164.244 41.9644 163.775 42.6192C163.4 43.1337 162.557 43.5083 161.713 43.5083H161.479C160.635 43.4145 160.26 43.3207 160.26 43.3207L160.073 43.4145C160.026 43.5083 160.073 43.6015 160.12 43.7419L160.167 43.8357C160.261 44.2564 160.448 45.5189 160.448 45.8469C160.448 49.6822 158.902 51.3654 157.261 52.6285C155.668 53.7978 153.841 54.5459 151.779 54.7335C151.732 54.7335 151.545 54.7335 151.122 54.7801C150.888 54.7801 150.56 54.8272 150.513 54.8272H150.466C150.092 54.9205 149.155 55.3883 149.155 56.183C149.155 56.8845 149.576 57.7269 151.591 57.8673C152.013 57.9139 152.434 57.9139 152.903 57.9611C155.574 58.1476 158.902 58.3818 160.448 58.8962C162.604 59.6909 163.963 61.6089 163.963 63.9008C163.963 67.3626 161.479 70.5897 157.355 72.6004C155.34 73.4894 153.325 73.9572 151.122 73.9572ZM177.833 41.3567C176.85 41.3567 175.959 41.5898 175.303 42.0577C173.476 43.1803 172.538 45.4257 172.538 48.6994C172.538 54.8272 175.631 59.1304 180.036 59.1304C181.348 59.1304 182.379 58.7558 183.27 58.0077C184.628 56.8845 185.332 54.6397 185.332 51.5058C185.332 45.4257 182.285 41.3562 177.834 41.3562L177.833 41.3567ZM178.677 61.3752C170.711 61.3752 167.852 55.5287 167.852 50.0563C167.852 46.2209 169.399 43.2741 172.491 41.1692C174.694 39.8128 177.319 39.0647 179.662 39.0647C185.753 39.0647 190.018 43.4145 190.018 49.6822C190.018 53.9382 188.331 57.3057 185.097 59.364C183.551 60.3929 180.88 61.3752 178.677 61.3752H178.677ZM95.1697 41.3562C94.1855 41.3562 93.2953 41.5898 92.6387 42.0577C90.8116 43.1803 89.8742 45.4257 89.8742 48.6994C89.8742 54.8272 92.9668 59.1304 97.3721 59.1304C98.6842 59.1304 99.7151 58.7558 100.606 58.0077C101.964 56.8845 102.668 54.6397 102.668 51.5058C102.668 45.4257 99.6684 41.3562 95.1697 41.3562ZM96.0131 61.3752C88.0466 61.3752 85.1881 55.5287 85.1881 50.0563C85.1881 46.2209 86.7344 43.2741 89.827 41.1692C92.0299 39.8128 94.6542 39.0647 96.9973 39.0647C103.09 39.0647 107.354 43.4145 107.354 49.6822C107.354 53.9382 105.667 57.3057 102.433 59.364C100.933 60.3929 98.2622 61.3752 96.0131 61.3752ZM42.4501 60.9074C42.3561 60.7675 42.2622 60.3463 42.3094 59.8319C42.3094 59.4573 42.4034 59.2236 42.4501 59.1304C43.4342 58.9895 43.9497 58.8491 44.5118 58.7092C45.4492 58.475 45.824 57.9611 45.8707 56.7918C46.0119 53.9853 46.0119 48.6528 45.9647 44.9579V44.8641C45.9647 44.4434 45.9647 43.9284 45.4492 43.5544C44.6992 43.0871 43.809 42.6664 42.6375 42.3379C42.216 42.1986 41.9347 41.9644 41.9814 41.6841C41.9814 41.4033 42.2627 41.0759 42.8721 40.9821C44.4184 40.8417 48.4479 39.86 50.0414 39.158C50.1353 39.2512 50.276 39.5325 50.276 39.9066L50.2293 40.4205C50.182 40.9355 50.1353 41.5437 50.1353 42.1514C50.1353 42.3385 50.3232 42.4789 50.5101 42.4789C50.604 42.4789 50.698 42.4322 50.7914 42.3851C53.7906 40.0465 56.5084 39.2046 57.914 39.2046C60.2108 39.2046 61.9917 40.2806 63.3506 42.5255C63.4441 42.6664 63.538 42.713 63.6787 42.713C63.7721 42.713 63.9123 42.6664 63.9595 42.5726C66.7245 40.4677 69.4896 39.2046 71.3167 39.2046C75.6747 39.2046 78.2524 42.4322 78.2524 47.9047C78.2524 49.448 78.2524 51.4592 78.2057 53.2839C78.2057 54.9205 78.159 56.4172 78.159 57.4932C78.159 57.7264 78.4865 58.475 79.0019 58.6154C79.658 58.9428 80.5487 59.0832 81.7202 59.2703H81.767C81.8609 59.5977 81.6735 60.8136 81.4861 61.0478C81.2048 61.0478 80.7828 61.0478 80.3146 61.0012C79.1284 60.9394 77.9407 60.9081 76.7528 60.9074C73.8476 60.9074 72.3481 60.954 70.8947 61.0478C70.8018 60.6737 70.7545 59.5511 70.8947 59.2703C71.7387 59.1304 72.1602 58.9895 72.6761 58.8496C73.6135 58.5688 73.8476 58.1476 73.8949 56.9317C73.8949 56.0432 74.0817 48.4658 73.8004 46.6416C73.5196 44.7708 72.1135 42.5726 69.0204 42.5726C67.8488 42.5726 66.0217 43.0404 64.2408 44.3963C64.1474 44.49 64.0529 44.7237 64.0529 44.8641V44.9112C64.2408 45.893 64.2408 47.0162 64.2408 48.7466V51.7866C64.2408 53.8916 64.1936 55.8561 64.2408 57.3523C64.2408 58.3818 64.8502 58.6154 65.3656 58.8029C65.647 58.8491 65.8338 58.8962 66.0685 58.9428C66.4899 59.0366 66.9119 59.1304 67.568 59.2703C67.662 59.4578 67.662 60.0655 67.5213 60.58C67.4741 60.8608 67.3801 61.0006 67.3334 61.0478C65.7404 61.0012 64.1002 60.954 61.7104 60.954C61.0076 60.954 59.7888 61.0012 58.758 61.0012C57.914 61.0012 57.1177 61.0478 56.6495 61.0478C56.6023 60.954 56.5084 60.6271 56.5084 60.1121C56.5084 59.6915 56.6023 59.364 56.6963 59.2703C56.9304 59.2236 57.1177 59.177 57.3524 59.177C57.914 59.0832 58.3832 58.9895 58.8514 58.8962C59.6487 58.6625 59.9295 58.2414 59.9762 57.2125C60.1169 54.8739 60.2576 48.1855 59.9295 46.5012C59.3674 43.7886 57.8211 42.4322 55.3369 42.4322C53.8845 42.4322 52.0564 43.1337 50.5573 44.2569C50.3227 44.4434 50.1353 44.9107 50.1353 45.3319V48.0917C50.1353 51.4592 50.1353 55.6691 50.182 57.4932C50.2293 58.0538 50.4161 58.7092 51.4942 58.9428C51.7288 58.9895 52.1036 59.0832 52.5723 59.1304L53.4153 59.2703C53.5097 59.5511 53.4625 60.6737 53.2751 61.0478C52.8064 61.0478 52.2443 61.0012 51.5877 61.0012C50.604 60.954 49.3386 60.9074 47.9329 60.9074C46.2927 60.9074 45.1212 60.954 44.1838 61.0012C43.5277 60.9074 43.0122 60.9074 42.4501 60.9074Z" fill="#442D22"/>
<path fill-rule="evenodd" clip-rule="evenodd" d="M17.8003 72.1331L15.8792 71.4777C15.8792 71.4777 16.1138 61.7026 12.5987 61.0011C10.2562 58.288 12.9745 -54.0603 21.4093 60.6266C21.4093 60.6266 18.5036 62.0762 17.9881 64.5557C17.4255 66.988 17.8003 72.1331 17.8003 72.1331Z" fill="white"/>
<path fill-rule="evenodd" clip-rule="evenodd" d="M17.8003 72.1331L15.8792 71.4777C15.8792 71.4777 16.1138 61.7026 12.5987 61.0011C10.2562 58.288 12.9745 -54.0603 21.4093 60.6266C21.4093 60.6266 18.5036 62.0762 17.9881 64.5557C17.4255 66.988 17.8003 72.1331 17.8003 72.1331Z" fill="#A6A385"/>
<path fill-rule="evenodd" clip-rule="evenodd" d="M18.8318 62.685C18.8318 62.685 35.6556 51.6463 31.7186 28.6804C27.9232 11.9833 18.9725 6.51085 17.9883 4.4059C16.9108 2.90917 15.8794 0.290283 15.8794 0.290283L16.5827 46.7349C16.5827 46.7821 15.1299 60.9541 18.8323 62.6855" fill="white"/>
<path fill-rule="evenodd" clip-rule="evenodd" d="M18.8318 62.685C18.8318 62.685 35.6556 51.6463 31.7186 28.6804C27.9232 11.9833 18.9725 6.51085 17.9883 4.4059C16.9108 2.90917 15.8794 0.290283 15.8794 0.290283L16.5827 46.7349C16.5827 46.7821 15.1299 60.9541 18.8323 62.6855" fill="#499D4A"/>
<path fill-rule="evenodd" clip-rule="evenodd" d="M14.8957 63.2927C14.8957 63.2927 -0.897282 52.5348 0.0401396 33.5923C0.930335 14.6494 12.0834 5.34158 14.2391 3.65782C15.6452 2.1611 15.6919 1.59951 15.7859 0.102783C16.77 2.20773 16.5826 31.5812 16.7228 35.0419C17.1443 48.3721 15.9733 60.7676 14.8957 63.2927Z" fill="white"/>
<path fill-rule="evenodd" clip-rule="evenodd" d="M14.8957 63.2927C14.8957 63.2927 -0.897282 52.5348 0.0401396 33.5923C0.930335 14.6494 12.0834 5.34158 14.2391 3.65782C15.6452 2.1611 15.6919 1.59951 15.7859 0.102783C16.77 2.20773 16.5826 31.5812 16.7228 35.0419C17.1443 48.3721 15.9733 60.7676 14.8957 63.2927Z" fill="#58AA50"/>
</g>
<g clip-path="url(#clip1_13_198)">
<path d="M287.425 48.8309L290.738 59.5358C291.482 61.9664 291.793 63.6631 291.668 64.6302C293.48 59.7975 294.746 54.531 295.466 48.8309H299.449C297.737 58.1108 295.478 64.8543 292.674 69.0611C290.489 72.3029 288.096 73.9236 285.489 73.9236C284.794 73.9236 283.938 73.7146 282.921 73.2994V71.0625C283.418 71.135 284.001 71.1738 284.671 71.1738C285.887 71.1738 286.867 70.8381 287.612 70.1683C288.505 69.3522 288.952 68.4349 288.952 67.4182C288.952 66.724 288.603 65.2994 287.909 63.1442L283.294 48.8309H287.425H287.425ZM262.073 42.2512L268.14 60.6889H268.178L274.282 42.2512H279.27C280.362 51.395 281.007 59.7612 281.205 67.3446H277C276.852 60.2557 276.442 53.5898 275.772 47.3456H275.736L269.332 67.3446H266.13L259.765 47.3456H259.728C259.256 53.3423 258.958 60.0083 258.835 67.3446H255C255.248 58.4222 255.868 50.0585 256.86 42.2512H262.073H262.073Z" fill="#00758F"/>
<path d="M330.044 41.8789C336.57 41.8789 339.834 46.0318 339.834 54.3336C339.834 58.8448 338.852 62.2524 336.891 64.5545C336.538 64.9752 336.147 65.3386 335.736 65.6753L340.355 67.9498L340.35 67.9496L338.71 70.7701L332.695 67.2747C331.698 67.5688 330.601 67.7157 329.406 67.7157C326.201 67.7157 323.808 66.7855 322.225 64.9274C320.488 62.872 319.62 59.6361 319.62 55.2254C319.62 50.7396 320.599 47.3449 322.561 45.0399C324.348 42.9314 326.842 41.8787 330.044 41.8787V41.8789ZM310.057 41.9153C312.39 41.9153 314.511 42.537 316.422 43.7759L315.451 45.9296C313.816 45.2375 312.205 44.89 310.615 44.89C309.326 44.89 308.332 45.1991 307.639 45.8212C306.942 46.4378 306.512 47.2313 306.512 48.1986C306.512 49.6849 307.575 50.9739 309.538 52.0629C310.181 52.413 310.822 52.7672 311.46 53.1254L311.607 53.2075L311.68 53.2486L311.827 53.3306L311.9 53.3718L312.047 53.454C313.533 54.2884 314.931 55.0848 314.931 55.0848C316.894 56.4726 317.872 57.9522 317.872 60.3891C317.872 62.5173 317.089 64.2642 315.528 65.6312C313.966 66.992 311.868 67.6744 309.24 67.6744C306.782 67.6744 304.4 66.889 302.093 65.3314L303.172 63.1758C305.158 64.1671 306.955 64.6622 308.568 64.6622C310.081 64.6622 311.266 64.3257 312.123 63.6612C312.978 62.9918 313.49 62.0582 313.49 60.8744C313.49 59.3844 312.45 58.1107 310.541 57.0423C309.943 56.7135 309.347 56.3815 308.753 56.0464L308.607 55.9639C308.339 55.8127 308.068 55.6596 307.803 55.5097L307.659 55.4283C306.37 54.6981 305.256 54.06 305.256 54.06C303.347 52.6697 302.39 51.1781 302.39 48.7202C302.39 46.6874 303.104 45.0443 304.529 43.7944C305.958 42.5417 307.801 41.9153 310.057 41.9153ZM347.504 42.2512V64.2578H355.431V67.3446H343.483V42.2512H347.504ZM359.837 64.2674V64.789H358.965V67.3419H358.299V64.789H357.393V64.2674H359.837H359.837ZM361.446 64.2674L362.283 66.3631L363.052 64.2674H363.996V67.3419H363.368V65.0021L362.493 67.3419H362.04L361.164 65.0021H361.13V67.3419H360.536V64.2674H361.446H361.446ZM329.633 44.9648C325.787 44.9648 323.863 48.1263 323.863 54.4449C323.863 58.0643 324.373 60.6889 325.391 62.3247C326.333 63.8387 327.81 64.5941 329.82 64.5941C333.666 64.5941 335.59 61.4081 335.59 55.039C335.59 51.4703 335.08 48.8682 334.064 47.2315C333.12 45.7209 331.644 44.9648 329.633 44.9648H329.633Z" fill="#F29111"/>
<path d="M319.552 1.55486C320.828 -1.56756 325.289 0.797052 327.02 1.88776C327.445 2.16064 327.931 2.73717 328.418 2.95026C329.177 2.97995 329.935 3.0391 330.695 3.0707C332.121 3.40444 333.457 3.67711 334.581 4.31449C339.802 7.37733 343.202 10.4985 346.33 15.6539C346.999 16.7459 347.333 17.9275 347.879 19.1092C348.637 20.8706 349.488 22.7195 350.368 24.385C350.762 25.1746 351.066 26.0527 351.613 26.7195C351.827 27.0244 352.433 27.1143 352.796 27.2965C353.798 27.8132 355.012 28.2055 355.955 28.8119C357.715 29.9051 359.418 31.2079 360.965 32.5416C361.542 33.0564 361.935 33.7851 362.484 34.3297V34.6044C361.996 34.7535 361.51 34.9062 361.024 35.0285C359.961 35.3003 359.02 35.2389 357.989 35.5109C357.352 35.6949 356.561 35.9377 355.893 35.9994L355.955 36.0613C356.348 37.1798 358.474 38.0894 359.447 38.7584C360.628 39.6074 361.722 40.637 362.603 41.8196C362.908 42.1213 363.212 42.3959 363.515 42.6967C363.726 43.0016 363.786 43.396 364 43.6679V43.7599C363.763 43.6765 363.592 43.5175 363.431 43.3513L363.334 43.251C363.238 43.1513 363.141 43.0534 363.03 42.9726C362.359 42.5167 361.694 41.9714 361.024 41.5475C359.872 40.8194 358.535 40.3968 357.352 39.6659C356.683 39.2416 356.046 38.7584 355.408 38.2729C354.83 37.8473 354.194 37.0301 353.83 36.4237C353.616 36.0887 353.587 35.6949 353.343 35.4526C353.386 35.0478 353.759 34.9276 354.134 34.8288L354.221 34.8061C354.35 34.7726 354.477 34.7391 354.588 34.6948C356.166 34.0273 358.048 33.7851 360.478 33.8458C360.387 33.2381 358.868 32.4809 358.383 32.1171C357.411 31.4186 356.38 30.6899 355.348 30.0542C354.801 29.7213 353.859 29.4783 353.253 29.2063C352.433 28.8725 350.611 28.539 350.157 27.9033C349.385 26.9012 348.831 25.706 348.292 24.4987L348.146 24.1692C348.097 24.0594 348.048 23.9496 347.999 23.8399C347.363 22.386 346.573 20.8701 345.935 19.3814C345.602 18.6552 345.449 18.0178 345.084 17.3213C342.868 13.0471 339.589 9.46862 335.613 6.95198C334.307 6.13311 332.85 5.3753 331.242 4.86027C330.33 4.58611 329.236 4.73771 328.265 4.52737H327.626C327.081 4.37428 326.626 3.7984 326.2 3.49477C325.26 2.85909 324.319 2.43226 323.195 1.97872C322.801 1.79679 321.676 1.37315 321.283 1.70668C321.04 1.76753 320.917 1.85892 320.857 2.10191C320.615 2.46449 320.828 3.01069 320.979 3.34507C321.435 4.31407 322.072 4.88995 322.65 5.70883C323.164 6.43505 323.803 7.25392 324.168 8.04354C324.955 9.74087 325.321 11.6214 326.05 13.3185C326.32 13.9568 326.748 14.683 327.142 15.2586C327.475 15.7156 328.082 16.0459 328.265 16.6244C328.631 17.2308 327.718 19.2317 327.506 19.8672C326.716 22.3537 326.869 25.8101 327.78 27.9654L327.828 28.0791L327.877 28.1942C328.209 28.9836 328.565 29.8337 329.449 30.0544C329.51 29.9942 329.449 30.0258 329.57 29.9942C329.784 28.3259 329.844 26.7193 330.422 25.414C330.755 24.5979 331.421 24.021 331.878 23.3548C332.182 23.5363 332.182 24.0835 332.364 24.4457C332.759 25.385 333.183 26.4148 333.67 27.3569C334.67 29.297 335.795 31.178 337.07 32.8751C337.496 33.4813 338.102 34.1486 338.648 34.6946C338.892 34.906 339.164 35.0281 339.347 35.3001H339.407V35.3917C338.496 35.0574 337.919 34.1189 337.192 33.571C335.825 32.5411 334.187 30.9946 333.244 29.5105C332.85 28.6586 332.424 27.842 331.999 26.9943V26.933C331.817 27.1752 331.878 27.4156 331.787 27.782C331.393 29.297 331.696 31.0253 330.33 31.5702C328.782 32.2085 327.627 30.5404 327.142 29.7824C325.593 27.2664 325.169 23.0219 326.261 19.5956C326.504 18.8371 326.537 17.9275 326.96 17.3219C326.869 16.7745 326.445 16.6248 326.2 16.2893C325.775 15.716 325.411 15.0481 325.078 14.4114C324.439 13.1676 323.985 11.6814 323.499 10.3475C323.286 9.80279 323.225 9.25595 323.012 8.74028C322.65 7.95321 321.981 7.1636 321.465 6.46727C320.767 5.46647 318.732 3.52678 319.552 1.55486ZM329.51 7.49501C329.591 7.576 329.689 7.64682 329.79 7.71658L329.912 7.80012C330.075 7.9125 330.233 8.03082 330.329 8.19196C330.483 8.40527 330.511 8.61582 330.695 8.82955C330.695 9.55831 330.483 10.0428 330.055 10.3447C330.055 10.3447 330.025 10.3766 329.995 10.4062C329.753 9.92047 329.54 9.43724 329.296 8.95189C328.995 8.52825 328.569 8.19217 328.324 7.7081H328.265V7.64725C328.631 7.55713 328.995 7.49501 329.51 7.49501Z" fill="#00758F"/>
</g>
<defs>
<clipPath id="clip0_13_198">
<rect width="260" height="74" fill="white"/>
</clipPath>
<clipPath id="clip1_13_198">
<rect width="109" height="74" fill="white" transform="translate(255)"/>
</clipPath>
</defs>
</svg>
