<svg width="162" height="91" viewBox="0 0 162 91" fill="none" xmlns="http://www.w3.org/2000/svg">
<path d="M50 52.5356C54.3147 52.5356 57.8125 49.3527 57.8125 45.4263C57.8125 41.4999 54.3147 38.3169 50 38.3169C45.6853 38.3169 42.1875 41.4999 42.1875 45.4263C42.1875 49.3527 45.6853 52.5356 50 52.5356Z" fill="#00D8FF"/>
<path d="M50 61.7265C40.6098 61.9332 31.2431 60.7813 22.25 58.314C18.0957 57.1156 14.221 55.2278 10.8219 52.7459C9.52478 51.8981 8.4446 50.8049 7.65544 49.5414C6.86629 48.278 6.38684 46.8741 6.25 45.4261C6.25 40.7254 11.925 36.1185 21.4312 33.1042C30.6648 30.4332 40.3123 29.1387 50 29.2708C59.5585 29.1493 69.0767 30.4204 78.1937 33.0359C82.1946 34.1966 85.9379 35.9932 89.25 38.3423C90.5249 39.1506 91.5889 40.2042 92.3666 41.4284C93.1442 42.6525 93.6165 44.0174 93.75 45.4261C93.75 50.3117 87.4062 55.2626 77.1875 58.3396C68.3685 60.7265 59.1995 61.8688 50 61.7265ZM50 32.6719C40.7316 32.5592 31.5026 33.7898 22.6594 36.3176C13.9094 39.0959 9.9875 42.8952 9.9875 45.4176C9.9875 48.0566 14.2031 52.2056 23.4594 55.0863C32.0627 57.4349 41.0207 58.5281 50 58.3254C58.8013 58.4686 67.5748 57.3849 76.0156 55.1119C85.625 52.2141 90 48.0594 90 45.4261C89.8423 44.5224 89.4804 43.6584 88.9372 42.8884C88.3939 42.1185 87.6811 41.4594 86.8438 40.9529C83.8805 38.8688 80.5366 37.2766 76.9656 36.2493C68.2438 33.7575 59.1406 32.5498 50 32.6719Z" fill="#00D8FF"/>
<path d="M32.25 80.8847C30.7922 80.9151 29.3516 80.5933 28.075 79.952C23.6 77.603 22.05 70.8292 23.9281 61.8287C25.9989 53.2153 29.5869 44.9633 34.5531 37.3924C39.2117 29.797 45.1756 22.9288 52.2187 17.0482C55.3224 14.4738 58.9027 12.4201 62.7938 10.9825C64.2011 10.3823 65.7364 10.0712 67.2906 10.0712C68.8449 10.0712 70.3801 10.3823 71.7875 10.9825C76.4406 13.4224 77.9813 20.8958 75.8094 30.4878C73.6747 38.6339 70.1799 46.4339 65.4469 53.616C60.9523 61.1217 55.1762 67.9301 48.3344 73.7867C45.1181 76.4621 41.3854 78.5726 37.325 80.0117C35.6994 80.5607 33.9836 80.8559 32.25 80.8847ZM37.7906 39.0816C33.0534 46.3312 29.6146 54.2209 27.6031 62.4544C25.875 70.7439 27.5344 75.729 29.9469 76.9973C32.4469 78.314 38.5156 77.0656 45.8844 71.2074C52.4157 65.5966 57.9289 59.0794 62.2188 51.8984C66.7529 45.0322 70.1053 37.5748 72.1594 29.7854C74.2031 20.7565 72.4375 15.2282 69.9313 13.9144C68.9919 13.5869 67.9881 13.4403 66.9833 13.4838C65.9785 13.5274 64.9946 13.7602 64.0938 14.1675C60.6303 15.4681 57.446 17.3145 54.6875 19.6218C47.9583 25.2547 42.2615 31.8298 37.8125 39.0986L37.7906 39.0816Z" fill="#00D8FF"/>
<path d="M67.7407 80.9216C63.5063 80.9216 58.1282 78.5898 52.5282 74.2075C45.3616 68.2734 39.2968 61.3236 34.5688 53.6273C29.6648 46.1606 26.1052 38.0281 24.025 29.5379C23.1229 25.8026 22.9557 21.9513 23.5313 18.1629C23.6643 16.7575 24.1346 15.3959 24.9089 14.1739C25.6832 12.9519 26.7426 11.8994 28.0125 11.0905C32.6594 8.64204 40.5438 11.1588 48.5906 17.6596C55.28 23.4102 60.9606 30.0603 65.4344 37.3781C70.3353 44.6705 73.9322 52.625 76.0907 60.9443C77.0316 64.8166 77.1768 68.814 76.5188 72.7345C76.3622 74.1803 75.8639 75.5781 75.0581 76.8323C74.2522 78.0864 73.1579 79.1671 71.85 80.0003C70.5943 80.6336 69.176 80.9516 67.7407 80.9216ZM37.8031 51.9154C42.3389 59.2705 48.1322 65.9219 54.9657 71.6197C61.9938 77.1224 67.5688 78.3054 69.9657 77.0228C72.4657 75.7005 74.3094 70.3031 72.4094 61.5699C70.3278 53.6271 66.8778 46.0342 62.1875 39.073C57.9182 32.0692 52.4961 25.7013 46.1094 20.1905C38.5344 14.0708 32.3906 12.7029 29.8875 14.0224C29.1073 14.5994 28.4671 15.3172 28.0072 16.1307C27.5473 16.9442 27.2778 17.8356 27.2156 18.7487C26.7188 22.1273 26.8806 25.5592 27.6938 28.8867C29.6947 37.006 33.1086 44.7822 37.8063 51.9211L37.8031 51.9154Z" fill="#00D8FF"/>
<g clip-path="url(#clip0_13_196)">
<path d="M135.282 58.4764C138.492 58.1798 140.928 55.7099 140.817 52.7456C140.707 49.7817 137.939 47.4104 134.617 47.4104H134.396C130.964 47.5092 128.307 50.078 128.418 53.1408C128.528 54.6229 129.193 55.9073 130.189 56.7965C126.425 63.4165 120.668 68.2577 112.032 72.3086C106.165 75.0751 100.076 76.0632 93.9867 75.3717C89.0046 74.7788 85.1297 72.803 82.6937 69.5421C79.1512 64.7009 78.8192 59.4642 81.8084 54.2278C83.9121 50.4732 87.233 47.7067 89.3366 46.3234C88.8938 45.039 88.2294 42.8654 87.8974 41.2847C71.8442 51.659 73.505 65.689 78.3763 72.3086C82.0297 77.249 89.4474 80.3119 97.64 80.3119C99.8541 80.3119 102.068 80.1141 104.283 79.6204C118.454 77.1502 129.193 69.641 135.282 58.4764ZM154.767 46.2248C146.353 37.4313 133.953 32.59 119.782 32.59H118.011C117.015 30.8116 114.911 29.6258 112.586 29.6258H112.364C108.933 29.7247 106.276 32.2934 106.386 35.3566C106.497 38.3205 109.265 40.6918 112.586 40.6918H112.807C115.243 40.593 117.347 39.2097 118.232 37.3324H120.225C128.639 37.3324 136.61 39.506 143.807 43.7546C149.342 47.0152 153.328 51.2638 155.542 56.4014C157.424 60.5511 157.313 64.602 155.32 68.0603C152.221 73.2967 147.017 76.1621 140.153 76.1621C135.725 76.1621 131.518 74.9763 129.303 74.0871C128.086 75.0751 125.871 76.6558 124.321 77.6442C129.082 79.6201 133.953 80.707 138.603 80.707C149.231 80.707 157.092 75.4703 160.081 70.2339C163.292 64.5032 163.07 54.6229 154.767 46.2248ZM98.5257 60.1557C98.6365 63.1199 101.404 65.4909 104.725 65.4909H104.947C108.379 65.3924 111.036 62.8233 110.925 59.7605C110.815 56.7962 108.047 54.4252 104.725 54.4252H104.504C104.283 54.4252 103.95 54.4252 103.729 54.5238C99.1901 47.8052 97.308 40.4941 97.9724 32.5897C98.4149 26.6616 100.629 21.5237 104.504 17.2751C107.715 13.6194 113.914 11.8409 118.122 11.7424C129.857 11.5446 134.839 24.5865 135.171 29.8232C136.61 30.1195 139.046 30.8113 140.707 31.3054C139.378 15.2995 128.307 7 117.679 7C107.715 7 98.5257 13.4222 94.872 22.9073C89.7795 35.554 93.1008 47.7067 99.3005 57.2906C98.7473 57.9821 98.4149 59.069 98.5257 60.156V60.1557Z" fill="#764ABC"/>
</g>
<defs>
<clipPath id="clip0_13_196">
<rect width="87" height="74" fill="white" transform="translate(75 7)"/>
</clipPath>
</defs>
</svg>
