<svg width="200" height="90" viewBox="0 0 200 90" fill="none" xmlns="http://www.w3.org/2000/svg">
<path d="M69.8785 17.6425L63.5235 82.5522L34.9575 89.7726L6.47022 82.5621L0.121826 17.6425H69.8785Z" fill="#E44D26"/>
<path d="M35 84.2535L58.0828 78.419L63.5132 22.9506H35V84.2535Z" fill="#F16529"/>
<path d="M22.6461 38.875H35V30.9128H13.1023L13.3112 33.0489L15.4577 54.9905H35V47.0283H23.4442L22.6461 38.875Z" fill="#EBEBEB"/>
<path d="M24.6143 58.9717H15.8479L17.0713 71.4734L34.9598 76.0009L35 75.9909V67.7069L34.9617 67.7161L25.2361 65.3218L24.6143 58.9717Z" fill="#EBEBEB"/>
<path d="M34.97 54.9905H45.7235L44.7096 65.3168L34.9697 67.7136V75.9971L52.8725 71.4734L53.0037 70.1281L55.0562 49.1664L55.2692 47.0283H34.97V54.9905Z" fill="white"/>
<path d="M34.97 38.8555V38.875H56.0638L56.2388 37.0854L56.6369 33.0489L56.8455 30.9128H34.97V38.8558V38.8555Z" fill="white"/>
<path d="M96.9575 89.7726L68.4702 82.5621L62.1218 17.6425H131.878L125.524 82.5522L96.9575 89.7726Z" fill="#264DE4"/>
<path d="M120.083 78.419L125.513 22.9506H97V84.2535L120.083 78.419Z" fill="#2965F1"/>
<path d="M76.675 47.0283L77.4576 54.9904H96.9999V47.0283H76.675Z" fill="#EBEBEB"/>
<path d="M75.1023 30.9128L75.8961 38.875H97V30.9128H75.1023Z" fill="#EBEBEB"/>
<path d="M97 67.7069L96.9617 67.7161L87.2361 65.3218L86.6143 58.9717H77.8479L79.0713 71.4734L96.9598 76.0009L97 75.9909V67.7069Z" fill="#EBEBEB"/>
<path d="M117.269 47.0283L118.846 30.9128H96.97V38.875H109.275L108.481 47.0283H96.97V54.9904H107.723L106.71 65.3168L96.9697 67.7136V75.9971L114.873 71.4734L115.004 70.1281L117.056 49.1664L117.269 47.0283Z" fill="white"/>
<path d="M125 18H200V90H125V18Z" fill="#F7DF1E"/>
<path d="M144.72 78.1684L150.46 74.8339C151.567 76.7186 152.574 78.3133 154.99 78.3133C157.306 78.3133 158.767 77.4436 158.767 74.0607V51.0551H165.815V74.1564C165.815 81.1643 161.535 84.3542 155.292 84.3542C149.654 84.3542 146.381 81.551 144.72 78.1678" fill="black"/>
<path d="M169.643 77.4432L175.382 74.2536C176.892 76.622 178.856 78.3618 182.329 78.3618C185.25 78.3618 187.112 76.9601 187.112 75.0267C187.112 72.707 185.199 71.8852 181.977 70.5324L180.215 69.8067C175.13 67.7292 171.757 65.1192 171.757 59.6095C171.757 54.5346 175.785 50.668 182.078 50.668C186.559 50.668 189.781 52.1665 192.096 56.0812L186.608 59.4646C185.4 57.3865 184.091 56.5649 182.078 56.5649C180.013 56.5649 178.704 57.8216 178.704 59.4646C178.704 61.4944 180.013 62.3165 183.034 63.5731L184.796 64.2979C190.787 66.7631 194.16 69.276 194.16 74.9303C194.16 81.0205 189.176 84.355 182.48 84.355C175.936 84.355 171.707 81.3585 169.643 77.4435" fill="black"/>
</svg>
